<?xml version="1.0" encoding="UTF-8" standalone="no"?>
<!-- Created with Inkscape (http://www.inkscape.org/) -->

<svg
   width="143.76743mm"
   height="26.561676mm"
   viewBox="0 0 143.76743 26.561676"
   version="1.1"
   id="svg5"
   xml:space="preserve"
   xmlns="http://www.w3.org/2000/svg"
   xmlns:svg="http://www.w3.org/2000/svg"><defs
     id="defs2" /><g
     id="layer1"
     transform="translate(-304.75809,-136.8959)"><path
       d="m 367.6235,151.11288 v 4.91302 h 0.44966 a 1.5623399,1.5623399 0 0 0 0.33991,-0.0346 q 0.21168,-0.0471 0.36557,-0.15905 a 0.83754481,0.83754481 0 0 0 0.19385,-0.19769 l 2.73131,-3.96372 a 1.5118774,1.5118774 0 0 1 0.18519,-0.222 q 0.15189,-0.1484 0.32693,-0.21934 a 1.4712409,1.4712409 0 0 1 0.28678,-0.0818 q 0.1892,-0.0348 0.41687,-0.0348 h 2.44817 l -3.59732,4.90469 q -0.19153,0.26646 -0.39971,0.44134 a 2.6412056,2.6412056 0 0 1 -0.29011,0.21284 2.2784749,2.2784749 0 0 1 -0.13457,0.0786 q 0.31643,0.11658 0.57874,0.32059 a 1.8569545,1.8569545 0 0 1 0.27695,0.26847 2.5106359,2.5106359 0 0 1 0.20186,0.27696 l 3.66394,5.62916 h -2.5148 q -0.24148,0 -0.41219,-0.0333 a 1.2500718,1.2500718 0 0 1 -0.15006,-0.0387 0.91382147,0.91382147 0 0 1 -0.14556,-0.0613 0.86402512,0.86402512 0 0 1 -0.18636,-0.13257 0.79807409,0.79807409 0 0 1 -0.0301,-0.0298 1.5103785,1.5103785 0 0 1 -0.11657,-0.1384 1.8249783,1.8249783 0 0 1 -0.0583,-0.0823 l -2.74796,-4.22187 a 0.91881776,0.91881776 0 0 0 -0.16971,-0.19885 0.77109412,0.77109412 0 0 0 -0.20918,-0.13007 q -0.22899,-0.0958 -0.62037,-0.0958 h -0.68282 v 5.16283 h -2.81458 v -12.13266 z m 43.38445,9.73444 v -1.8403 h -1.19911 q -0.26647,0 -0.41636,-0.14156 a 0.46848548,0.46848548 0 0 1 -0.14972,-0.34142 0.61304482,0.61304482 0 0 1 -1.7e-4,-0.0167 v -1.54885 h 4.31347 v 5.1212 q -0.46633,0.34141 -0.97012,0.58706 a 6.2580201,6.2580201 0 0 1 -1.05638,0.39888 6.8639033,6.8639033 0 0 1 -0.0178,0.005 7.7219333,7.7219333 0 0 1 -0.89783,0.19036 8.9033893,8.9033893 0 0 1 -0.31794,0.0428 11.184196,11.184196 0 0 1 -0.84404,0.0643 13.624883,13.624883 0 0 1 -0.54243,0.0106 6.6235822,6.6235822 0 0 1 -1.73754,-0.2225 5.9370917,5.9370917 0 0 1 -0.72729,-0.24798 q -1.1325,-0.47049 -1.96105,-1.29904 -0.82855,-0.82855 -1.29903,-1.96521 a 6.2746744,6.2746744 0 0 1 -0.46116,-2.09827 7.3225631,7.3225631 0 0 1 -0.009,-0.37073 7.1530222,7.1530222 0 0 1 0.17571,-1.61047 6.1567619,6.1567619 0 0 1 0.27396,-0.88351 q 0.44967,-1.13665 1.28654,-1.96104 a 5.7344089,5.7344089 0 0 1 1.7144,-1.15431 6.7160131,6.7160131 0 0 1 0.3091,-0.12807 q 1.18662,-0.458 2.6522,-0.458 a 8.1639384,8.1639384 0 0 1 0.97694,0.0563 6.9173641,6.9173641 0 0 1 0.44701,0.0686 q 0.66617,0.12491 1.22825,0.34142 a 5.8315034,5.8315034 0 0 1 0.78925,0.37155 5.1738251,5.1738251 0 0 1 0.23915,0.14473 q 0.46633,0.29978 0.83272,0.64952 l -0.81606,1.24074 a 0.9616193,0.9616193 0 0 1 -0.16355,0.18919 0.83921022,0.83921022 0 0 1 -0.11542,0.0856 q -0.16237,0.0999 -0.3539,0.0999 a 0.83854407,0.83854407 0 0 1 -0.28578,-0.0526 q -0.1056,-0.0381 -0.21401,-0.10392 a 1.4685762,1.4685762 0 0 1 -0.0165,-0.01 9.7371035,9.7371035 0 0 0 -0.3629,-0.20785 7.60452,7.60452 0 0 0 -0.26581,-0.13773 q -0.29561,-0.14572 -0.60371,-0.23733 a 3.9057667,3.9057667 0 0 0 -0.56475,-0.12207 4.3477718,4.3477718 0 0 0 -0.0848,-0.0111 q -0.3414,-0.0417 -0.76609,-0.0417 a 3.8583019,3.8583019 0 0 0 -0.81789,0.0833 3.1518264,3.1518264 0 0 0 -0.60606,0.19569 q -0.63285,0.27896 -1.07836,0.78692 a 3.4139651,3.4139651 0 0 0 -0.55342,0.87667 4.1102815,4.1102815 0 0 0 -0.13357,0.34325 4.5161468,4.5161468 0 0 0 -0.20751,0.95329 5.7202527,5.7202527 0 0 0 -0.034,0.63303 q 0,0.96595 0.26647,1.71539 0.26647,0.74945 0.73695,1.26574 0.47049,0.51627 1.11584,0.78691 a 3.516056,3.516056 0 0 0 1.12833,0.26097 4.1559142,4.1559142 0 0 0 0.28312,0.01 5.8429949,5.8429949 0 0 0 0.48447,-0.0191 q 0.29512,-0.0247 0.5481,-0.0808 a 5.098048,5.098048 0 0 0 0.77393,-0.23582 4.67786,4.67786 0 0 0 0.0754,-0.0307 z m -64.2523,-9.73444 h 7.81087 v 2.16505 h -4.97963 v 2.83124 h 3.81383 v 2.08178 h -3.81383 v 2.88952 h 4.97963 v 2.16507 h -7.81087 z m -1.5655,1.15747 -0.69948,1.30736 a 1.4479249,1.4479249 0 0 1 -0.0954,0.13574 q -0.0524,0.0658 -0.10708,0.11524 a 0.72213047,0.72213047 0 0 1 -0.0598,0.0488 0.50046174,0.50046174 0 0 1 -0.17953,0.0808 q -0.0796,0.0191 -0.17438,0.0191 -0.17187,0 -0.36739,-0.0974 a 1.3081954,1.3081954 0 0 1 -0.0448,-0.0233 q -0.22066,-0.12074 -0.49963,-0.27063 a 3.6867626,3.6867626 0 0 0 -0.33641,-0.15838 4.8085963,4.8085963 0 0 0 -0.30061,-0.11225 2.2418354,2.2418354 0 0 0 -0.42802,-0.0969 3.010931,3.010931 0 0 0 -0.38804,-0.0238 2.9513087,2.9513087 0 0 0 -0.43351,0.0295 q -0.22134,0.033 -0.39871,0.10259 a 1.1741282,1.1741282 0 0 0 -0.34608,0.20518 1.1080106,1.1080106 0 0 0 -0.37871,0.74645 1.5601749,1.5601749 0 0 0 -0.008,0.16538 0.94513157,0.94513157 0 0 0 0.0471,0.30393 0.80257078,0.80257078 0 0 0 0.18603,0.30395 q 0.23317,0.24148 0.61205,0.41636 a 5.6508043,5.6508043 0 0 0 0.40587,0.16754 7.6030213,7.6030213 0 0 0 0.46015,0.15305 21.616283,21.616283 0 0 1 0.93165,0.30244 23.562172,23.562172 0 0 1 0.0634,0.0223 q 0.50795,0.17903 0.99509,0.42052 0.48714,0.24148 0.86602,0.61621 a 2.7899284,2.7899284 0 0 1 0.51129,0.70031 3.3030475,3.3030475 0 0 1 0.10076,0.21151 2.6650212,2.6650212 0 0 1 0.17304,0.58206 q 0.0601,0.32792 0.0601,0.71281 a 4.2931457,4.2931457 0 0 1 -0.19235,1.2952 4.0011958,4.0011958 0 0 1 -0.0991,0.27863 q -0.29145,0.73279 -0.8452,1.27822 -0.55376,0.54543 -1.36565,0.85769 -0.8119,0.31227 -1.84447,0.31227 a 5.8957891,5.8957891 0 0 1 -1.11667,-0.10942 6.4748593,6.4748593 0 0 1 -0.0366,-0.007 q -0.58707,-0.11659 -1.13666,-0.32893 -0.54959,-0.21234 -1.03256,-0.50379 a 4.6427195,4.6427195 0 0 1 -0.58007,-0.41136 3.9618916,3.9618916 0 0 1 -0.26097,-0.23816 l 0.83271,-1.31569 q 0.0916,-0.14989 0.25814,-0.24149 0.16654,-0.0916 0.35807,-0.0916 a 0.85553146,0.85553146 0 0 1 0.31393,0.0618 1.1603052,1.1603052 0 0 1 0.18986,0.0964 30.657903,30.657903 0 0 0 0.26164,0.16105 q 0.13839,0.0843 0.29228,0.17637 a 49.619325,49.619325 0 0 0 0.0206,0.0123 q 0.32059,0.19152 0.73695,0.34974 0.41636,0.15822 0.9826,0.15822 a 2.8015865,2.8015865 0 0 0 0.4635,-0.036 q 0.44117,-0.0741 0.72729,-0.30127 a 1.053551,1.053551 0 0 0 0.34907,-0.52229 q 0.0568,-0.17903 0.0709,-0.3977 a 2.3226088,2.3226088 0 0 0 0.004,-0.15005 1.2615633,1.2615633 0 0 0 -0.0356,-0.30778 0.90865862,0.90865862 0 0 0 -0.19753,-0.38338 1.6416144,1.6416144 0 0 0 -0.3484,-0.29745 2.1379126,2.1379126 0 0 0 -0.26364,-0.14389 4.9774709,4.9774709 0 0 0 -0.4455,-0.17886 6.5509691,6.5509691 0 0 0 -0.41636,-0.12924 25.41846,25.41846 0 0 1 -0.86436,-0.25548 27.896953,27.896953 0 0 1 -0.12657,-0.0402 q -0.50796,-0.16238 -0.99093,-0.3997 -0.48297,-0.23733 -0.86186,-0.62454 a 2.7154838,2.7154838 0 0 1 -0.43451,-0.59073 3.4156305,3.4156305 0 0 1 -0.17753,-0.37522 q -0.23317,-0.57874 -0.23317,-1.42811 0,-0.68282 0.2748,-1.33234 0.27479,-0.64952 0.80773,-1.15748 a 3.7645382,3.7645382 0 0 1 0.88535,-0.62204 4.6209023,4.6209023 0 0 1 0.42202,-0.18985 4.3006401,4.3006401 0 0 1 0.97061,-0.24998 5.7215851,5.7215851 0 0 1 0.80307,-0.054 q 0.55792,0 1.08669,0.0874 a 5.7522289,5.7522289 0 0 1 0.92898,0.23183 5.2922372,5.2922372 0 0 1 0.0744,0.0263 5.5398866,5.5398866 0 0 1 0.83505,0.37855 5.1113715,5.1113715 0 0 1 0.0518,0.0295 4.1734013,4.1734013 0 0 1 0.61204,0.42685 3.7688683,3.7688683 0 0 1 0.12491,0.11026 z m 38.10504,-1.15747 4.69652,12.13266 h -2.18172 a 1.2910414,1.2910414 0 0 1 -0.26596,-0.026 q -0.17488,-0.0368 -0.31011,-0.1259 a 0.80073882,0.80073882 0 0 1 -0.0276,-0.0188 q -0.23733,-0.17071 -0.32893,-0.43718 l -0.71613,-2.11509 H 379.548 l -0.71613,2.11509 q -0.0833,0.23316 -0.32476,0.42052 -0.24149,0.18737 -0.59122,0.18737 h -2.19837 l 4.69651,-12.13267 z m -73.61201,12.13266 h -4.8464 v -12.13266 h 4.46335 q 1.2574,0 2.14008,0.23316 0.75161,0.19852 1.26789,0.53594 a 2.9524745,2.9524745 0 0 1 0.17271,0.1219 2.567427,2.567427 0 0 1 0.63436,0.68766 2.4137078,2.4137078 0 0 1 0.17754,0.34491 3.2810638,3.2810638 0 0 1 0.22916,0.90266 4.0633163,4.0633163 0 0 1 0.0248,0.45466 q 0,0.40803 -0.11658,0.78692 -0.11658,0.37889 -0.36639,0.71197 a 2.5529378,2.5529378 0 0 1 -0.38888,0.4102 3.1539915,3.1539915 0 0 1 -0.25231,0.19352 q -0.39138,0.27064 -0.94098,0.47049 0.84671,0.20568 1.38198,0.59206 a 2.3484229,2.3484229 0 0 1 0.39171,0.35307 2.2708139,2.2708139 0 0 1 0.52911,1.13099 3.1588212,3.1588212 0 0 1 0.0455,0.54693 3.5130582,3.5130582 0 0 1 -0.21335,1.22975 3.3391873,3.3391873 0 0 1 -0.0864,0.21084 q -0.29978,0.66617 -0.87852,1.16164 a 3.8056743,3.8056743 0 0 1 -0.82922,0.5346 4.9110202,4.9110202 0 0 1 -0.59888,0.23983 5.4253051,5.4253051 0 0 1 -1.00126,0.22167 7.3550391,7.3550391 0 0 1 -0.93897,0.0573 z m 84.13753,0 h -4.8464 v -12.13266 h 4.46335 q 1.2574,0 2.14008,0.23316 0.75161,0.19852 1.26789,0.53594 a 2.9524745,2.9524745 0 0 1 0.1727,0.1219 2.567427,2.567427 0 0 1 0.63437,0.68766 2.4137078,2.4137078 0 0 1 0.17754,0.34491 3.2810638,3.2810638 0 0 1 0.22915,0.90266 4.0633163,4.0633163 0 0 1 0.0248,0.45466 q 0,0.40803 -0.11658,0.78692 -0.11658,0.37889 -0.3664,0.71197 a 2.5529378,2.5529378 0 0 1 -0.38887,0.4102 3.1539915,3.1539915 0 0 1 -0.25231,0.19352 q -0.39138,0.27064 -0.94097,0.47049 0.8467,0.20568 1.38198,0.59206 a 2.3484229,2.3484229 0 0 1 0.3917,0.35307 2.2708139,2.2708139 0 0 1 0.52911,1.13099 3.1588212,3.1588212 0 0 1 0.0455,0.54693 3.5130582,3.5130582 0 0 1 -0.21334,1.22975 3.3391873,3.3391873 0 0 1 -0.0864,0.21084 q -0.29978,0.66617 -0.87852,1.16164 a 3.8056743,3.8056743 0 0 1 -0.82921,0.5346 4.9110202,4.9110202 0 0 1 -0.59889,0.23983 5.4253051,5.4253051 0 0 1 -1.00126,0.22167 7.3550391,7.3550391 0 0 1 -0.93897,0.0573 z m 48.33078,0 h -4.71316 v -12.13266 h 4.71316 a 7.5843687,7.5843687 0 0 1 1.55185,0.15305 6.2969913,6.2969913 0 0 1 1.0254,0.30494 6.0874801,6.0874801 0 0 1 1.4884,0.83338 5.510242,5.510242 0 0 1 0.49763,0.43235 q 0.82439,0.80773 1.27822,1.91941 a 6.2003962,6.2003962 0 0 1 0.44217,2.00517 7.2745987,7.2745987 0 0 1 0.0116,0.41386 6.6850364,6.6850364 0 0 1 -0.19553,1.63895 5.8934574,5.8934574 0 0 1 -0.2583,0.78842 q -0.45383,1.11167 -1.27822,1.92357 -0.82439,0.8119 -1.98603,1.26573 a 6.6165871,6.6165871 0 0 1 -1.71722,0.40936 8.1459517,8.1459517 0 0 1 -0.86002,0.0445 z M 327.48646,159.027 a 6.7153472,6.7153472 0 0 0 0.24999,-1.85196 7.3950095,7.3950095 0 0 0 -0.004,-0.24365 6.4265619,6.4265619 0 0 0 -0.44983,-2.1962 q -0.45383,-1.1325 -1.27822,-1.96521 a 5.6191611,5.6191611 0 0 0 -0.40504,-0.37089 6.0908109,6.0908109 0 0 0 -1.58098,-0.94064 6.0864808,6.0864808 0 0 0 -1.00559,-0.31443 7.2541137,7.2541137 0 0 0 -1.57167,-0.16438 7.8621624,7.8621624 0 0 0 -0.77659,0.0375 6.4490447,6.4490447 0 0 0 -1.80483,0.43718 6.7741369,6.7741369 0 0 0 -0.21567,0.0921 5.86298,5.86298 0 0 0 -1.77868,1.21527 q -0.82855,0.83271 -1.28238,1.96521 a 6.1136273,6.1136273 0 0 0 -0.20385,0.59605 6.7153472,6.7153472 0 0 0 -0.24998,1.85213 7.4371445,7.4371445 0 0 0 0.007,0.32592 6.4189008,6.4189008 0 0 0 0.44666,2.12226 q 0.45383,1.1325 1.28238,1.96937 a 5.5983432,5.5983432 0 0 0 0.37856,0.34874 6.0248598,6.0248598 0 0 0 1.6158,0.96279 6.1652556,6.1652556 0 0 0 0.98843,0.30727 7.3228961,7.3228961 0 0 0 1.59298,0.16737 7.8520031,7.8520031 0 0 0 0.77626,-0.0376 6.410407,6.410407 0 0 0 1.801,-0.43701 6.6955288,6.6955288 0 0 0 0.17936,-0.0764 5.8086871,5.8086871 0 0 0 1.80666,-1.23508 q 0.82439,-0.83688 1.27822,-1.96938 a 6.1136273,6.1136273 0 0 0 0.20385,-0.59622 z m 99.50945,0 a 6.7153472,6.7153472 0 0 0 0.24998,-1.85196 7.3950095,7.3950095 0 0 0 -0.004,-0.24365 6.4265619,6.4265619 0 0 0 -0.44984,-2.1962 q -0.45383,-1.1325 -1.27822,-1.96521 a 5.6191611,5.6191611 0 0 0 -0.40503,-0.37089 6.0908109,6.0908109 0 0 0 -1.58099,-0.94064 6.0864808,6.0864808 0 0 0 -1.00559,-0.31443 7.2541137,7.2541137 0 0 0 -1.57166,-0.16438 7.8621624,7.8621624 0 0 0 -0.77659,0.0375 6.4490447,6.4490447 0 0 0 -1.80483,0.43718 6.7741369,6.7741369 0 0 0 -0.21567,0.0921 5.86298,5.86298 0 0 0 -1.77868,1.21527 q -0.82855,0.83271 -1.28238,1.96521 a 6.1136273,6.1136273 0 0 0 -0.20385,0.59605 6.7153472,6.7153472 0 0 0 -0.24998,1.85213 7.4371445,7.4371445 0 0 0 0.007,0.32592 6.4189008,6.4189008 0 0 0 0.44667,2.12226 q 0.45383,1.1325 1.28238,1.96937 a 5.5983432,5.5983432 0 0 0 0.37855,0.34874 6.0248598,6.0248598 0 0 0 1.61581,0.96279 6.1652556,6.1652556 0 0 0 0.98843,0.30727 7.3228961,7.3228961 0 0 0 1.59298,0.16737 7.8520031,7.8520031 0 0 0 0.77626,-0.0376 6.410407,6.410407 0 0 0 1.80099,-0.43701 6.6955288,6.6955288 0 0 0 0.17937,-0.0764 5.8086871,5.8086871 0 0 0 1.80666,-1.23508 q 0.82439,-0.83688 1.27822,-1.96938 a 6.1136273,6.1136273 0 0 0 0.20385,-0.59622 z m -95.09589,-7.91412 v 9.88432 h 4.49666 v 2.24834 h -7.31124 v -12.13266 z m 27.07989,0 v 9.88432 h 4.49666 v 2.24834 h -7.31124 v -12.13266 z m 76.21008,0 v 12.13266 h -2.83122 v -12.13266 z m -110.33474,6.06216 a 5.9720657,5.9720657 0 0 0 -0.0619,-0.87984 4.5995848,4.5995848 0 0 0 -0.1712,-0.73979 3.7672028,3.7672028 0 0 0 -0.32409,-0.73595 3.0950353,3.0950353 0 0 0 -0.34625,-0.48397 q -0.43717,-0.49963 -1.07004,-0.7661 -0.63286,-0.26647 -1.44059,-0.26647 -0.81606,0 -1.45309,0.26647 -0.63703,0.26647 -1.0742,0.7661 a 3.2217745,3.2217745 0 0 0 -0.50463,0.79124 4.0091898,4.0091898 0 0 0 -0.16571,0.42868 4.7138333,4.7138333 0 0 0 -0.19319,0.9055 6.1462697,6.1462697 0 0 0 -0.04,0.71413 6.073657,6.073657 0 0 0 0.0583,0.8607 4.6097439,4.6097439 0 0 0 0.17487,0.76726 3.7672028,3.7672028 0 0 0 0.32409,0.73579 3.0950353,3.0950353 0 0 0 0.34624,0.48414 q 0.43718,0.49963 1.0742,0.76193 a 3.4306194,3.4306194 0 0 0 0.84288,0.22217 4.4846701,4.4846701 0 0 0 0.61021,0.0402 4.2625017,4.2625017 0 0 0 0.7641,-0.0656 3.3105419,3.3105419 0 0 0 0.6765,-0.19669 q 0.63286,-0.2623 1.07004,-0.76193 a 3.2217745,3.2217745 0 0 0 0.50462,-0.79141 4.0091898,4.0091898 0 0 0 0.16571,-0.42852 4.6841886,4.6841886 0 0 0 0.18853,-0.86969 6.1869062,6.1869062 0 0 0 0.0446,-0.75827 z m 99.50945,0 a 5.9720657,5.9720657 0 0 0 -0.0619,-0.87984 4.5995848,4.5995848 0 0 0 -0.1712,-0.73979 3.7672028,3.7672028 0 0 0 -0.3241,-0.73595 3.0950353,3.0950353 0 0 0 -0.34624,-0.48397 q -0.43717,-0.49963 -1.07004,-0.7661 -0.63286,-0.26647 -1.44059,-0.26647 -0.81607,0 -1.45309,0.26647 -0.63703,0.26647 -1.0742,0.7661 a 3.2217745,3.2217745 0 0 0 -0.50463,0.79124 4.0091898,4.0091898 0 0 0 -0.16571,0.42868 4.7138333,4.7138333 0 0 0 -0.19319,0.9055 6.1462697,6.1462697 0 0 0 -0.04,0.71413 6.073657,6.073657 0 0 0 0.0583,0.8607 4.6097439,4.6097439 0 0 0 0.17486,0.76726 3.7672028,3.7672028 0 0 0 0.3241,0.73579 3.0950353,3.0950353 0 0 0 0.34624,0.48414 q 0.43718,0.49963 1.0742,0.76193 a 3.4306194,3.4306194 0 0 0 0.84287,0.22217 4.4846701,4.4846701 0 0 0 0.61022,0.0402 4.2625017,4.2625017 0 0 0 0.7641,-0.0656 3.3105419,3.3105419 0 0 0 0.67649,-0.19669 q 0.63287,-0.2623 1.07004,-0.76193 a 3.2217745,3.2217745 0 0 0 0.50463,-0.79141 4.0091898,4.0091898 0 0 0 0.16571,-0.42852 4.6841886,4.6841886 0 0 0 0.18853,-0.86969 6.1869062,6.1869062 0 0 0 0.0446,-0.75827 z m 17.78679,-3.89711 h -1.88194 v 7.80254 h 1.88194 q 0.80773,0 1.4406,-0.27062 0.63286,-0.27064 1.07004,-0.77443 a 3.2575812,3.2575812 0 0 0 0.50462,-0.79707 4.0556554,4.0556554 0 0 0 0.16571,-0.43119 4.7549695,4.7549695 0 0 0 0.19169,-0.89899 6.234704,6.234704 0 0 0 0.0415,-0.73313 q 0,-0.89933 -0.23315,-1.62379 a 3.8108371,3.8108371 0 0 0 -0.3241,-0.74062 3.1285104,3.1285104 0 0 0 -0.34624,-0.48764 q -0.43717,-0.50379 -1.07004,-0.77442 a 3.3192022,3.3192022 0 0 0 -0.85936,-0.23266 4.288649,4.288649 0 0 0 -0.58123,-0.038 z m -60.83816,2.0235 -1.11584,3.30588 h 3.31421 l -1.11584,-3.32253 q -0.0744,-0.21767 -0.16655,-0.4883 a 525.37907,525.37907 0 0 1 -0.0874,-0.25698 17.543141,17.543141 0 0 1 -0.18053,-0.56375 21.507531,21.507531 0 0 1 -0.10676,-0.36473 q -0.13323,0.50796 -0.27479,0.94097 a 17.564625,17.564625 0 0 1 -0.10376,0.30827 q -0.0529,0.15206 -0.10325,0.28629 a 9.5156012,9.5156012 0 0 1 -0.0594,0.15488 z m -71.69677,2.79793 h -1.9652 v 3.02275 h 1.98186 q 0.55792,0 0.91182,-0.14156 a 1.8126541,1.8126541 0 0 0 0.26214,-0.1289 q 0.17304,-0.10409 0.29162,-0.23749 0.19985,-0.22484 0.2748,-0.50796 0.0749,-0.28312 0.0749,-0.57457 a 2.1833789,2.1833789 0 0 0 -0.0233,-0.32593 1.6819178,1.6819178 0 0 0 -0.0641,-0.27363 q -0.0874,-0.26646 -0.29978,-0.44967 -0.21234,-0.18319 -0.56208,-0.28312 -0.34974,-0.0999 -0.88268,-0.0999 z m 84.13753,0 h -1.9652 v 3.02275 h 1.98186 q 0.55792,0 0.91182,-0.14156 a 1.8126541,1.8126541 0 0 0 0.26214,-0.1289 q 0.17304,-0.10409 0.29161,-0.23749 0.19986,-0.22484 0.2748,-0.50796 0.075,-0.28312 0.075,-0.57457 a 2.1833789,2.1833789 0 0 0 -0.0233,-0.32593 1.6819178,1.6819178 0 0 0 -0.0641,-0.27363 q -0.0874,-0.26646 -0.29977,-0.44967 -0.21234,-0.18319 -0.56209,-0.28312 -0.34974,-0.0999 -0.88268,-0.0999 z m -86.10273,-4.87971 v 2.99777 h 1.46558 q 0.46631,0 0.84104,-0.0666 a 2.0782902,2.0782902 0 0 0 0.32409,-0.0836 1.5192053,1.5192053 0 0 0 0.31294,-0.14956 q 0.2623,-0.16654 0.3997,-0.45799 0.11325,-0.24032 0.13324,-0.5824 a 2.5919089,2.5919089 0 0 0 0.004,-0.15039 q 0,-0.33125 -0.0633,-0.57724 a 1.3861375,1.3861375 0 0 0 -0.045,-0.14306 1.0836953,1.0836953 0 0 0 -0.1802,-0.31443 0.98643426,0.98643426 0 0 0 -0.15288,-0.14772 1.2079364,1.2079364 0 0 0 -0.28196,-0.16138 q -0.1319,-0.0546 -0.28845,-0.0884 a 3.041575,3.041575 0 0 0 -0.32559,-0.0511 q -0.16821,-0.0178 -0.35924,-0.0223 a 5.6631285,5.6631285 0 0 0 -0.1354,-0.001 z m 84.13753,0 v 2.99777 h 1.46557 q 0.46632,0 0.84105,-0.0666 a 2.0782902,2.0782902 0 0 0 0.32409,-0.0836 1.5192053,1.5192053 0 0 0 0.31294,-0.14956 q 0.2623,-0.16654 0.3997,-0.45799 0.11324,-0.24032 0.13323,-0.5824 a 2.5919089,2.5919089 0 0 0 0.004,-0.15039 q 0,-0.33125 -0.0633,-0.57724 a 1.3861375,1.3861375 0 0 0 -0.0449,-0.14306 1.0836953,1.0836953 0 0 0 -0.1802,-0.31443 0.98643426,0.98643426 0 0 0 -0.15289,-0.14772 1.2079364,1.2079364 0 0 0 -0.28196,-0.16138 q -0.1319,-0.0546 -0.28845,-0.0884 a 3.041575,3.041575 0 0 0 -0.32559,-0.0511 q -0.16821,-0.0178 -0.35923,-0.0223 a 5.6631285,5.6631285 0 0 0 -0.13541,-0.001 z m 7.68512,8.25936 a 1.4054564,1.4054564 0 0 0 -0.0741,0.45916 q 0,0.29978 0.11242,0.56209 0.11241,0.2623 0.3081,0.45383 0.19569,0.19152 0.46216,0.29978 a 1.415449,1.415449 0 0 0 0.18903,0.0616 1.6158003,1.6158003 0 0 0 0.39387,0.0466 1.7215551,1.7215551 0 0 0 0.0575,-10e-4 1.4953897,1.4953897 0 0 0 0.51712,-0.10725 q 0.26646,-0.10825 0.46631,-0.29978 0.19986,-0.19152 0.31228,-0.45383 0.11241,-0.2623 0.11241,-0.56208 a 1.5784946,1.5784946 0 0 0 -5e-4,-0.0373 1.3723144,1.3723144 0 0 0 -0.11191,-0.52061 q -0.11242,-0.25814 -0.31228,-0.44967 -0.19985,-0.19152 -0.46631,-0.30394 a 1.3932988,1.3932988 0 0 0 -0.10143,-0.0383 1.4878953,1.4878953 0 0 0 -0.47315,-0.0741 1.7067328,1.7067328 0 0 0 -0.11691,0.004 1.4447606,1.4447606 0 0 0 -0.46599,0.10859 q -0.26647,0.11242 -0.46215,0.30394 -0.19569,0.19152 -0.30811,0.44966 a 1.3195202,1.3195202 0 0 0 -0.0383,0.0988 z m 28.279,0 a 1.4054564,1.4054564 0 0 0 -0.0741,0.45916 q 0,0.29978 0.11242,0.56209 0.11242,0.2623 0.30811,0.45383 0.19568,0.19152 0.46215,0.29978 a 1.415449,1.415449 0 0 0 0.18903,0.0616 1.6158003,1.6158003 0 0 0 0.39387,0.0466 1.7215551,1.7215551 0 0 0 0.0575,-10e-4 1.4953897,1.4953897 0 0 0 0.51712,-0.10725 q 0.26647,-0.10825 0.46632,-0.29978 0.19985,-0.19152 0.31227,-0.45383 0.11241,-0.2623 0.11241,-0.56208 a 1.5784946,1.5784946 0 0 0 -4.9e-4,-0.0373 1.3723144,1.3723144 0 0 0 -0.11192,-0.52061 q -0.11242,-0.25814 -0.31227,-0.44967 -0.19985,-0.19152 -0.46632,-0.30394 a 1.3932988,1.3932988 0 0 0 -0.10143,-0.0383 1.4878953,1.4878953 0 0 0 -0.47314,-0.0741 1.7067328,1.7067328 0 0 0 -0.11692,0.004 1.4447606,1.4447606 0 0 0 -0.46598,0.10859 q -0.26648,0.11242 -0.46216,0.30394 -0.19569,0.19152 -0.30811,0.44966 a 1.3195202,1.3195202 0 0 0 -0.0383,0.0988 z"
       vector-effect="non-scaling-stroke"
       id="path314"
       style="font-size:12px;fill:#ffffff;fill-rule:evenodd;stroke:#ffffff;stroke-width:0.0416357mm;stroke-linecap:round" /><g
       id="svgGroup-2-8"
       stroke-linecap="round"
       fill-rule="evenodd"
       font-size="12px"
       stroke="#ffffff"
       stroke-width="0.25mm"
       fill="#ffffff"
       style="fill:#ffffff;stroke:#ffffff;stroke-width:0.25mm"
       transform="matrix(0.12602904,0,0,0.13481236,304.97542,136.95953)"><path
         d="m 161.65,44.851 h -5.75 v 28.25 h -13.45 v -72.3 h 22.05 q 6.164,0 10.854,1.058 a 31.607,31.607 0 0 1 1.821,0.467 q 4.903,1.417 8.165,3.893 a 17.942,17.942 0 0 1 0.485,0.382 16.632,16.632 0 0 1 4.528,5.635 16.301,16.301 0 0 1 0.422,0.94 21.033,21.033 0 0 1 1.477,6.173 25.29,25.29 0 0 1 0.098,2.252 22.149,22.149 0 0 1 -0.765,5.874 20.53,20.53 0 0 1 -0.31,1.026 q -1.075,3.25 -3.1,5.9 -2.025,2.65 -5,4.65 a 25.14,25.14 0 0 1 -4.87,2.528 29.827,29.827 0 0 1 -1.905,0.672 12.792,12.792 0 0 1 3.494,2.953 15.632,15.632 0 0 1 0.906,1.197 l 18.1,26.7 h -12.1 a 7.29,7.29 0 0 1 -1.383,-0.125 q -0.856,-0.165 -1.548,-0.55 a 4.598,4.598 0 0 1 -0.044,-0.025 5.903,5.903 0 0 1 -1.743,-1.534 7.135,7.135 0 0 1 -0.332,-0.466 l -15.2,-23.15 a 7.158,7.158 0 0 0 -0.662,-0.87 q -0.572,-0.637 -1.213,-0.98 a 3.774,3.774 0 0 0 -0.809,-0.311 q -0.821,-0.22 -2,-0.238 A 13.971,13.971 0 0 0 161.65,44.851 Z M 292,0.801 l 28.4,72.3 H 310 q -1.75,0 -2.875,-0.875 Q 306,71.351 305.5,70.051 l -5.4,-14.75 h -29.95 l -5.4,14.75 a 4.128,4.128 0 0 1 -0.722,1.262 q -0.346,0.423 -0.822,0.812 a 7.073,7.073 0 0 1 -0.031,0.026 4.249,4.249 0 0 1 -2.231,0.913 5.58,5.58 0 0 1 -0.644,0.037 h -10.45 l 28.4,-72.3 z m -93.4,0 h 57.05 v 11.05 H 233.9 v 61.25 H 220.45 V 11.851 H 198.6 Z m -68.453,46.525 a 41.836,41.836 0 0 0 1.253,-10.375 45.823,45.823 0 0 0 -0.093,-2.94 39.023,39.023 0 0 0 -2.557,-11.785 q -2.65,-6.775 -7.45,-11.7 A 32.725,32.725 0 0 0 119.592,8.895 34.721,34.721 0 0 0 109.75,2.801 35.21,35.21 0 0 0 104.026,0.988 41.668,41.668 0 0 0 94.8,0.001 45.431,45.431 0 0 0 90.667,0.185 37.416,37.416 0 0 0 79.825,2.776 38.717,38.717 0 0 0 79.403,2.951 33.832,33.832 0 0 0 68.225,10.501 Q 63.4,15.451 60.75,22.226 a 37.102,37.102 0 0 0 -1.397,4.349 41.836,41.836 0 0 0 -1.253,10.376 45.823,45.823 0 0 0 0.093,2.939 39.023,39.023 0 0 0 2.557,11.786 q 2.65,6.775 7.475,11.725 4.825,4.95 11.6,7.725 a 35.713,35.713 0 0 0 5.74,1.796 42.148,42.148 0 0 0 9.235,0.979 45.118,45.118 0 0 0 4.498,-0.22 37.046,37.046 0 0 0 10.452,-2.555 38.453,38.453 0 0 0 0.42,-0.176 33.624,33.624 0 0 0 11.13,-7.549 33.715,33.715 0 0 0 0.592,-0.626 35.03,35.03 0 0 0 6.858,-11.099 37.102,37.102 0 0 0 1.397,-4.35 z M 341.3,0.801 v 61.2 h 28.95 v 11.1 h -42.4 V 0.801 Z M 23.55,47.651 h -10.1 v 25.45 H 0 v -72.3 h 23.55 a 52.111,52.111 0 0 1 5.77,0.302 q 3.716,0.415 6.78,1.398 a 28.415,28.415 0 0 1 4.562,1.89 21.176,21.176 0 0 1 4.188,2.86 q 3.45,3.05 5.1,7.3 a 24.549,24.549 0 0 1 1.559,6.976 29.298,29.298 0 0 1 0.091,2.324 27.416,27.416 0 0 1 -0.675,6.183 23.469,23.469 0 0 1 -1.075,3.442 q -1.75,4.375 -5.25,7.525 -3.5,3.15 -8.75,4.9 a 32.389,32.389 0 0 1 -5.604,1.298 q -2.726,0.395 -5.808,0.444 a 55.439,55.439 0 0 1 -0.888,0.008 z m 94.05,-10.7 q 0,-5.95 -1.575,-10.675 a 24.473,24.473 0 0 0 -2.281,-4.987 20.568,20.568 0 0 0 -2.244,-3.038 q -2.95,-3.3 -7.175,-5.05 A 22.853,22.853 0 0 0 98.336,11.66 29.014,29.014 0 0 0 94.8,11.451 27.698,27.698 0 0 0 89.465,11.944 22.317,22.317 0 0 0 85.25,13.201 q -4.25,1.75 -7.225,5.05 -2.975,3.3 -4.575,8.025 -1.6,4.725 -1.6,10.675 0,5.95 1.6,10.675 a 24.324,24.324 0 0 0 2.31,4.978 20.38,20.38 0 0 0 2.265,3.022 Q 81,58.901 85.25,60.651 a 23.098,23.098 0 0 0 6.03,1.543 29.103,29.103 0 0 0 3.52,0.207 27.589,27.589 0 0 0 5.328,-0.494 22.057,22.057 0 0 0 4.197,-1.256 q 4.225,-1.75 7.175,-5.025 a 21.169,21.169 0 0 0 3.53,-5.457 26.074,26.074 0 0 0 0.995,-2.543 Q 117.6,42.901 117.6,36.951 Z m 164.8,-15.1 -8.8,23.95 h 23.05 l -8.8,-24.05 a 82.81,82.81 0 0 1 -0.468,-1.281 q -0.202,-0.568 -0.416,-1.191 a 147.063,147.063 0 0 1 -0.441,-1.303 82.608,82.608 0 0 1 -0.719,-2.269 102.313,102.313 0 0 1 -0.706,-2.456 184.724,184.724 0 0 1 -0.694,2.462 149.988,149.988 0 0 1 -0.681,2.288 65.911,65.911 0 0 1 -0.586,1.819 q -0.28,0.827 -0.556,1.556 A 37.503,37.503 0 0 1 282.4,21.851 Z M 13.45,11.201 v 25.95 h 10.1 a 25.017,25.017 0 0 0 3.056,-0.178 q 1.587,-0.195 2.953,-0.607 A 14.636,14.636 0 0 0 30,36.226 q 2.75,-0.925 4.55,-2.65 a 10.828,10.828 0 0 0 2.643,-4.047 12.499,12.499 0 0 0 0.057,-0.153 14.847,14.847 0 0 0 0.784,-3.408 18.736,18.736 0 0 0 0.116,-2.117 16.148,16.148 0 0 0 -0.269,-3.008 13.041,13.041 0 0 0 -0.631,-2.242 q -0.9,-2.35 -2.7,-4 A 10.928,10.928 0 0 0 31.929,12.841 14.313,14.313 0 0 0 30,12.076 17.595,17.595 0 0 0 27.113,11.433 q -1.422,-0.2 -3.031,-0.228 A 30.429,30.429 0 0 0 23.55,11.201 Z m 142.45,0 v 24 h 8.4 a 25.696,25.696 0 0 0 3.138,-0.182 q 1.631,-0.201 3.034,-0.624 a 15.041,15.041 0 0 0 0.453,-0.144 q 2.825,-0.95 4.65,-2.625 1.825,-1.675 2.725,-3.975 a 13.182,13.182 0 0 0 0.844,-3.704 15.842,15.842 0 0 0 0.056,-1.346 13.347,13.347 0 0 0 -0.428,-3.48 9.393,9.393 0 0 0 -3.197,-4.97 q -2.572,-2.094 -7.071,-2.702 A 29.988,29.988 0 0 0 164.5,11.201 Z"
         vector-effect="non-scaling-stroke"
         id="path467-7" /></g></g></svg>
